<svg width="277" height="277" viewBox="0 0 277 277" fill="none" xmlns="http://www.w3.org/2000/svg">
<rect width="277" height="277" fill="#E5ECDF"/>
<path d="M117.724 81.974H204.107V93.9479H117.724V81.974ZM118.067 124.054H193.673V135.685H118.067V124.054ZM152.62 57H165.107V130.211H152.62V57ZM111.053 81.974H123.369V125.251C123.369 131.979 123.084 139.22 122.514 146.975C122.058 154.615 121.032 162.427 119.435 170.409C117.953 178.392 115.729 186.203 112.764 193.844C109.913 201.37 106.036 208.213 101.132 214.37C100.448 213.686 99.4216 212.888 98.0532 211.976C96.7988 211.177 95.4874 210.379 94.1189 209.581C92.7505 208.897 91.5531 208.384 90.5268 208.041C95.2023 201.998 98.9085 195.497 101.645 188.541C104.382 181.471 106.435 174.287 107.803 166.988C109.172 159.576 110.027 152.335 110.369 145.264C110.825 138.08 111.053 131.352 111.053 125.08V81.974ZM200.686 81.974H202.739L204.962 81.4608L214.199 83.8556C212.033 90.0136 209.638 96.2856 207.015 102.672C204.506 108.944 202.055 114.303 199.66 118.751L188.541 115.159C190.594 111.167 192.704 106.321 194.87 100.619C197.151 94.8031 199.09 89.2724 200.686 84.0267V81.974ZM138.08 130.896C142.185 142.641 147.83 153.418 155.014 163.225C162.313 172.918 171.037 181.243 181.186 188.199C191.449 195.041 203.024 200.173 215.91 203.594C214.998 204.392 213.971 205.419 212.831 206.673C211.805 208.041 210.778 209.41 209.752 210.778C208.84 212.147 208.098 213.401 207.528 214.542C187.572 208.384 170.923 198.348 157.58 184.436C144.238 170.523 134.089 153.76 127.133 134.146L138.08 130.896ZM66.237 67.9475L73.5923 58.8816C77.0134 60.4781 80.6056 62.3597 84.3688 64.5264C88.132 66.6931 91.6671 68.9168 94.9742 71.1976C98.3953 73.3643 101.189 75.4169 103.356 77.3555L95.8295 87.6188C93.6628 85.6802 90.9259 83.5705 87.6188 81.2898C84.3118 78.895 80.7766 76.5573 77.0134 74.2765C73.2502 71.8818 69.6581 69.7721 66.237 67.9475ZM57 114.303L64.1843 104.724C67.6054 106.321 71.2546 108.145 75.1318 110.198C79.0091 112.137 82.6582 114.189 86.0793 116.356C89.5004 118.409 92.3513 120.347 94.6321 122.172L87.2767 132.777C85.11 130.839 82.3161 128.786 78.895 126.619C75.4739 124.339 71.8248 122.115 67.9475 119.948C64.0703 117.782 60.4211 115.9 57 114.303ZM61.1053 204.449C63.8422 200.002 66.8071 194.756 70.0002 188.712C73.3072 182.554 76.6143 176.054 79.9214 169.212C83.2284 162.37 86.3074 155.756 89.1583 149.37L99.2506 157.067C96.7418 162.997 93.9479 169.212 90.8689 175.712C87.7899 182.212 84.6539 188.598 81.4608 194.87C78.3819 201.142 75.3599 206.958 72.3949 212.318L61.1053 204.449ZM188.883 124.054H191.62L194.015 123.711L202.055 127.304C197.835 143.041 191.734 156.668 183.752 168.186C175.883 179.589 166.646 189.111 156.041 196.752C145.435 204.392 134.032 210.436 121.83 214.884C121.26 213.857 120.461 212.66 119.435 211.292C118.523 209.923 117.553 208.555 116.527 207.186C115.501 205.932 114.474 204.962 113.448 204.278C125.422 200.287 136.426 194.87 146.462 188.028C156.611 181.186 165.335 172.69 172.633 162.541C180.045 152.392 185.462 140.418 188.883 126.619V124.054Z" fill="black"/>
</svg>
